<?xml version="1.0" encoding="UTF-8"?>
<!DOCTYPE svg PUBLIC "-//W3C//DTD SVG 1.1//EN" "http://www.w3.org/Graphics/SVG/1.1/DTD/svg11.dtd">
<svg xmlns="http://www.w3.org/2000/svg" version="1.1" width="631px" height="634px" style="shape-rendering:geometricPrecision; text-rendering:geometricPrecision; image-rendering:optimizeQuality; fill-rule:evenodd; clip-rule:evenodd" xmlns:xlink="http://www.w3.org/1999/xlink">
<g><path style="opacity:1" fill="#fefefe" d="M -0.5,-0.5 C 209.833,-0.5 420.167,-0.5 630.5,-0.5C 630.5,210.833 630.5,422.167 630.5,633.5C 420.167,633.5 209.833,633.5 -0.5,633.5C -0.5,422.167 -0.5,210.833 -0.5,-0.5 Z"/></g>
<g><path style="opacity:1" fill="#929692" d="M 294.5,6.5 C 394.762,2.84615 478.929,37.5128 547,110.5C 614.524,190.173 638.191,281.506 618,384.5C 593.691,482.798 536.191,554.298 445.5,599C 366.366,633.606 286.032,636.606 204.5,608C 117.85,572.683 57.3497,511.516 23,424.5C -7.73036,335.198 -1.06369,248.864 43,165.5C 99.9929,70.4013 183.826,17.4013 294.5,6.5 Z"/></g>
<g><path style="opacity:1" fill="#fefefe" d="M 289.5,20.5 C 391.877,15.1227 476.711,50.7894 544,127.5C 608.699,210.328 627.032,302.661 599,404.5C 565.9,501.933 500.734,567.433 403.5,601C 300.931,629.819 207.931,611.486 124.5,546C 45.9066,476.27 10.74,388.77 19,283.5C 34.5979,177.733 89.4313,99.8999 183.5,50C 217.175,33.7126 252.508,23.8793 289.5,20.5 Z"/></g>
<g><path style="opacity:1" fill="#666668" d="M 300.5,134.5 C 309.839,134.334 319.173,134.5 328.5,135C 330.489,139.621 332.489,144.288 334.5,149C 354.37,152.523 372.536,160.023 389,171.5C 392.894,169.803 396.727,167.97 400.5,166C 401.5,165.333 402.5,165.333 403.5,166C 409.333,171.833 415.167,177.667 421,183.5C 421.163,188.204 419.83,192.537 417,196.5C 416.333,197.833 416.333,199.167 417,200.5C 428.435,216.382 435.769,234.049 439,253.5C 443.667,255.5 448.333,257.5 453,259.5C 453.667,268.5 453.667,277.5 453,286.5C 448.379,288.489 443.712,290.489 439,292.5C 437.69,296.07 436.857,299.737 436.5,303.5C 428.768,303.765 425.768,300.098 427.5,292.5C 427.667,289.833 427.833,287.167 428,284.5C 438.444,279.271 442.11,270.937 439,259.5C 435.762,253.874 431.095,249.874 425,247.5C 408.35,191.847 371.016,162.847 313,160.5C 275.455,161.271 245.455,176.605 223,206.5C 202.877,235.007 196.71,266.341 204.5,300.5C 200.281,300.888 196.281,301.888 192.5,303.5C 192.143,299.737 191.31,296.07 190,292.5C 185.667,290.833 181.333,289.167 177,287.5C 176.168,277.816 176.335,268.149 177.5,258.5C 181.644,256.731 185.81,255.064 190,253.5C 193.244,234.092 200.577,216.426 212,200.5C 211.903,196.208 210.569,192.208 208,188.5C 207.333,187.167 207.333,185.833 208,184.5C 214.227,178.609 220.06,172.443 225.5,166C 226.5,165.333 227.5,165.333 228.5,166C 232.273,167.97 236.106,169.803 240,171.5C 256.564,160.138 274.73,152.471 294.5,148.5C 296.8,143.971 298.8,139.304 300.5,134.5 Z"/></g>
<g><path style="opacity:1" fill="#666668" d="M 229.5,295.5 C 225.971,297.423 221.971,298.089 217.5,297.5C 208.124,256.794 219.124,222.628 250.5,195C 287.377,168.061 326.044,165.394 366.5,187C 389.649,201.142 404.649,221.308 411.5,247.5C 407.167,247.5 402.833,247.5 398.5,247.5C 390.195,220.412 372.861,201.578 346.5,191C 301.637,177.206 265.804,189.372 239,227.5C 226.169,248.859 223.003,271.525 229.5,295.5 Z"/></g>
<g><path style="opacity:1" fill="#666668" d="M 303.5,210.5 C 307.167,210.5 310.833,210.5 314.5,210.5C 314.5,214.5 314.5,218.5 314.5,222.5C 310.561,222.959 306.727,222.959 303,222.5C 302.554,219.657 302.054,216.824 301.5,214C 301.862,212.566 302.528,211.399 303.5,210.5 Z"/></g>
<g><path style="opacity:1" fill="#656567" d="M 264.5,272.5 C 260.5,272.5 256.5,272.5 252.5,272.5C 252.5,269.833 252.5,267.167 252.5,264.5C 255.055,249.558 261.722,236.724 272.5,226C 276.595,222.535 281.095,219.702 286,217.5C 289.051,220.597 290.718,224.264 291,228.5C 274.081,238.262 265.247,252.928 264.5,272.5 Z"/></g>
<g><path style="opacity:1" fill="#68686a" d="M 381.5,260.5 C 395.171,260.333 408.837,260.5 422.5,261C 427.207,262.633 428.54,265.8 426.5,270.5C 425.335,271.584 424.002,272.417 422.5,273C 408.833,273.667 395.167,273.667 381.5,273C 376.247,268.789 376.247,264.623 381.5,260.5 Z"/></g>
<g><path style="opacity:1" fill="#b0b0b1" d="M 252.5,264.5 C 252.5,267.167 252.5,269.833 252.5,272.5C 256.5,272.5 260.5,272.5 264.5,272.5C 260.366,273.485 256.032,273.818 251.5,273.5C 251.19,270.287 251.523,267.287 252.5,264.5 Z"/></g>
<g><path style="opacity:1" fill="#959596" d="M 414.5,298.5 C 414.5,294.5 414.5,290.5 414.5,286.5C 406.5,286.5 398.5,286.5 390.5,286.5C 390.5,290.5 390.5,294.5 390.5,298.5C 389.515,294.366 389.182,290.032 389.5,285.5C 398.167,285.5 406.833,285.5 415.5,285.5C 415.818,290.032 415.485,294.366 414.5,298.5 Z"/></g>
<g><path style="opacity:1" fill="#636365" d="M 414.5,298.5 C 406.5,298.5 398.5,298.5 390.5,298.5C 390.5,294.5 390.5,290.5 390.5,286.5C 398.5,286.5 406.5,286.5 414.5,286.5C 414.5,290.5 414.5,294.5 414.5,298.5 Z"/></g>
<g><path style="opacity:1" fill="#9a9a9b" d="M 229.5,295.5 C 230.404,296.209 230.737,297.209 230.5,298.5C 225.968,298.818 221.634,298.485 217.5,297.5C 221.971,298.089 225.971,297.423 229.5,295.5 Z"/></g>
<g><path style="opacity:1" fill="#646466" d="M 219.5,310.5 C 269.352,310.82 302.185,334.487 318,381.5C 326.641,426.703 311.808,461.87 273.5,487C 231.165,507.616 192.665,502.116 158,470.5C 128.575,434.881 124.575,396.547 146,355.5C 163.549,329.142 188.049,314.142 219.5,310.5 Z"/></g>
<g><path style="opacity:1" fill="#666668" d="M 388.5,311.5 C 437.083,307.967 471.249,328.3 491,372.5C 503.538,414.216 493.705,449.716 461.5,479C 421.634,506.472 381.967,506.138 342.5,478C 333.88,471.066 327.213,462.733 322.5,453C 324.143,448.4 325.976,443.9 328,439.5C 352.828,481.781 388.661,495.281 435.5,480C 466.203,464.795 482.536,439.962 484.5,405.5C 482.234,364.127 461.234,337.627 421.5,326C 379.847,318.911 348.68,333.744 328,370.5C 325.129,365.454 323.462,360.121 323,354.5C 338.91,331.081 360.743,316.747 388.5,311.5 Z"/></g>
<g><path style="opacity:1" fill="#fdfdfd" d="M 301.5,396.5 C 301.674,403.535 301.341,410.535 300.5,417.5C 294.076,450.093 274.743,470.593 242.5,479C 203.21,484.607 174.71,469.774 157,434.5C 143.972,396.928 153.139,366.095 184.5,342C 217.115,323.457 248.115,325.79 277.5,349C 290.953,362.073 298.953,377.906 301.5,396.5 Z"/></g>
<g><path style="opacity:1" fill="#636365" d="M 334.5,415.5 C 334.5,414.167 334.5,412.833 334.5,411.5C 338.5,411.5 342.5,411.5 346.5,411.5C 346.5,407.167 346.5,402.833 346.5,398.5C 342.5,398.5 338.5,398.5 334.5,398.5C 334.5,397.5 334.5,396.5 334.5,395.5C 335.78,383.155 340.28,372.155 348,362.5C 348.718,361.549 349.551,361.383 350.5,362C 353,364.5 355.5,367 358,369.5C 361.586,366.616 364.252,363.283 366,359.5C 363.5,357 361,354.5 358.5,352C 369.447,342.695 382.114,337.529 396.5,336.5C 396.5,340.5 396.5,344.5 396.5,348.5C 400.5,348.5 404.5,348.5 408.5,348.5C 408.5,344.5 408.5,340.5 408.5,336.5C 422.93,337.474 435.597,342.64 446.5,352C 443.078,354.719 440.578,357.886 439,361.5C 441.667,364.167 444.333,366.833 447,369.5C 449.5,367 452,364.5 454.5,362C 455.996,361.493 457.163,361.993 458,363.5C 465.747,373.906 470.247,385.573 471.5,398.5C 467.5,398.5 463.5,398.5 459.5,398.5C 459.5,402.833 459.5,407.167 459.5,411.5C 463.514,411.334 467.514,411.501 471.5,412C 469.75,424.583 465.25,436.083 458,446.5C 457.163,448.007 455.996,448.507 454.5,448C 452,445.5 449.5,443 447,440.5C 443.984,443.349 441.15,446.349 438.5,449.5C 440.984,452.484 443.65,455.318 446.5,458C 435.743,467.697 423.077,472.864 408.5,473.5C 408.5,469.5 408.5,465.5 408.5,461.5C 404.5,461.5 400.5,461.5 396.5,461.5C 396.5,465.5 396.5,469.5 396.5,473.5C 381.919,472.92 369.252,467.753 358.5,458C 361.922,455.281 364.422,452.114 366,448.5C 363.618,445.781 360.951,443.447 358,441.5C 355.216,443.28 352.716,445.447 350.5,448C 349.551,448.617 348.718,448.451 348,447.5C 341.014,437.864 336.514,427.198 334.5,415.5 Z"/></g>
<g><path style="opacity:1" fill="#646466" d="M 247.5,385.5 C 244.833,385.5 242.167,385.5 239.5,385.5C 239.737,384.209 239.404,383.209 238.5,382.5C 236.755,376.616 232.755,373.616 226.5,373.5C 215.766,375.622 212.266,381.956 216,392.5C 216.833,393.333 217.667,394.167 218.5,395C 226.5,398.333 234.5,401.667 242.5,405C 254.141,417.337 254.474,430.004 243.5,443C 240.205,445.231 236.705,447.064 233,448.5C 232.501,452.821 232.334,457.154 232.5,461.5C 228.5,461.5 224.5,461.5 220.5,461.5C 220.666,457.154 220.499,452.821 220,448.5C 205.99,443.501 199.823,433.501 201.5,418.5C 205.5,418.5 209.5,418.5 213.5,418.5C 213.194,421.385 213.527,424.052 214.5,426.5C 215.554,432.387 219.054,435.72 225,436.5C 237.428,435.291 241.428,428.958 237,417.5C 236.167,416.667 235.333,415.833 234.5,415C 227.422,412.53 220.422,409.863 213.5,407C 202.723,399.409 199.223,389.243 203,376.5C 206.623,369.188 212.289,364.188 220,361.5C 220.499,357.179 220.666,352.846 220.5,348.5C 224.5,348.5 228.5,348.5 232.5,348.5C 232.334,352.846 232.501,357.179 233,361.5C 244.701,365.237 250.868,373.237 251.5,385.5C 250.167,385.5 248.833,385.5 247.5,385.5 Z"/></g>
<g><path style="opacity:1" fill="#fcfcfc" d="M 374.5,369.5 C 381.243,374.737 387.577,380.571 393.5,387C 401.382,385.43 408.715,386.763 415.5,391C 423.636,400.927 423.303,410.594 414.5,420C 412.833,420.833 411.167,421.667 409.5,422.5C 408.507,427.12 408.173,431.786 408.5,436.5C 404.5,436.5 400.5,436.5 396.5,436.5C 396.5,431.833 396.5,427.167 396.5,422.5C 390.616,421.119 386.783,417.453 385,411.5C 384.094,409.256 383.594,406.923 383.5,404.5C 383.778,401.679 384.278,399.012 385,396.5C 378.833,390.333 372.667,384.167 366.5,378C 369.371,375.297 372.038,372.464 374.5,369.5 Z"/></g>
<g><path style="opacity:1" fill="#b4b4b5" d="M 238.5,382.5 C 239.404,383.209 239.737,384.209 239.5,385.5C 242.167,385.5 244.833,385.5 247.5,385.5C 244.713,386.477 241.713,386.81 238.5,386.5C 238.5,385.167 238.5,383.833 238.5,382.5 Z"/></g>
<g><path style="opacity:1" fill="#6a6a6c" d="M 400.5,398.5 C 407.369,398.538 409.869,401.871 408,408.5C 403.927,412.619 400.26,412.285 397,407.5C 395.98,403.553 397.147,400.553 400.5,398.5 Z"/></g>
<g><path style="opacity:1" fill="#a4a4a5" d="M 301.5,396.5 C 302.165,399.314 302.498,402.314 302.5,405.5C 302.722,409.797 302.055,413.797 300.5,417.5C 301.341,410.535 301.674,403.535 301.5,396.5 Z"/></g>
<g><path style="opacity:1" fill="#cdcdce" d="M 334.5,395.5 C 334.5,396.5 334.5,397.5 334.5,398.5C 338.5,398.5 342.5,398.5 346.5,398.5C 346.5,402.833 346.5,407.167 346.5,411.5C 342.5,411.5 338.5,411.5 334.5,411.5C 334.5,412.833 334.5,414.167 334.5,415.5C 333.549,414.081 333.216,412.415 333.5,410.5C 337.5,410.5 341.5,410.5 345.5,410.5C 345.5,406.833 345.5,403.167 345.5,399.5C 341.5,399.5 337.5,399.5 333.5,399.5C 333.232,397.901 333.566,396.568 334.5,395.5 Z"/></g>
<g><path style="opacity:1" fill="#9e9e9f" d="M 201.5,418.5 C 205.634,417.515 209.968,417.182 214.5,417.5C 214.5,420.5 214.5,423.5 214.5,426.5C 213.527,424.052 213.194,421.385 213.5,418.5C 209.5,418.5 205.5,418.5 201.5,418.5 Z"/></g>
</svg>
